<svg xmlns="http://www.w3.org/2000/svg" viewBox="0 0 800 400">
  <defs>
    <linearGradient id="sky2" x1="0" y1="0" x2="0" y2="1">
      <stop offset="0%" stop-color="#1a237e"/>
      <stop offset="40%" stop-color="#283593"/>
      <stop offset="70%" stop-color="#FF8F00"/>
      <stop offset="100%" stop-color="#FFB300"/>
    </linearGradient>
  </defs>
  <!-- Sky sunset -->
  <rect width="800" height="400" fill="url(#sky2)"/>
  <!-- Stars -->
  <g fill="white" opacity="0.6">
    <circle cx="50" cy="30" r="1.5"/>
    <circle cx="150" cy="50" r="1"/>
    <circle cx="300" cy="25" r="1.5"/>
    <circle cx="500" cy="40" r="1"/>
    <circle cx="700" cy="20" r="1.5"/>
    <circle cx="750" cy="55" r="1"/>
    <circle cx="400" cy="15" r="1"/>
    <circle cx="600" cy="60" r="1.5"/>
    <circle cx="100" cy="70" r="1"/>
  </g>
  <!-- Sun setting -->
  <circle cx="400" cy="240" r="50" fill="#FF8F00" opacity="0.8"/>
  <circle cx="400" cy="240" r="65" fill="#FF8F00" opacity="0.2"/>
  <!-- Distant tree silhouettes -->
  <g fill="#1B5E20" opacity="0.7">
    <ellipse cx="100" cy="235" rx="50" ry="25"/>
    <ellipse cx="200" cy="230" rx="60" ry="30"/>
    <ellipse cx="350" cy="228" rx="70" ry="28"/>
    <ellipse cx="500" cy="232" rx="55" ry="25"/>
    <ellipse cx="650" cy="230" rx="65" ry="28"/>
    <ellipse cx="760" cy="235" rx="50" ry="22"/>
  </g>
  <!-- Ground -->
  <rect x="0" y="240" width="800" height="160" fill="#0D3B0D" opacity="0.9"/>
  <!-- Palm silhouettes -->
  <g fill="none" stroke="#0a2e0a" stroke-width="4" stroke-linecap="round">
    <!-- Left palm -->
    <line x1="120" y1="280" x2="118" y2="160"/>
    <path d="M118 165 Q90 130 70 115" stroke-width="3"/>
    <path d="M118 165 Q100 120 95 100" stroke-width="3"/>
    <path d="M118 165 Q130 120 140 100" stroke-width="3"/>
    <path d="M118 165 Q145 130 165 115" stroke-width="3"/>
    <!-- Center palm -->
    <line x1="400" y1="290" x2="398" y2="140"/>
    <path d="M398 145 Q365 105 345 85" stroke-width="3"/>
    <path d="M398 145 Q380 90 375 70" stroke-width="3"/>
    <path d="M398 145 Q415 90 420 70" stroke-width="3"/>
    <path d="M398 145 Q430 105 450 85" stroke-width="3"/>
    <path d="M398 145 Q375 115 360 100" stroke-width="2.5"/>
    <path d="M398 145 Q420 115 435 100" stroke-width="2.5"/>
    <!-- Right palm -->
    <line x1="680" y1="275" x2="682" y2="150"/>
    <path d="M682 155 Q655 120 640 105" stroke-width="3"/>
    <path d="M682 155 Q665 100 660 80" stroke-width="3"/>
    <path d="M682 155 Q700 100 705 80" stroke-width="3"/>
    <path d="M682 155 Q710 120 725 105" stroke-width="3"/>
  </g>
  <!-- Reflection lines on ground -->
  <g stroke="#FF8F00" stroke-width="1" opacity="0.15">
    <line x1="350" y1="260" x2="450" y2="260"/>
    <line x1="360" y1="280" x2="440" y2="280"/>
    <line x1="370" y1="300" x2="430" y2="300"/>
    <line x1="380" y1="320" x2="420" y2="320"/>
  </g>
  <!-- Flying birds -->
  <g stroke="#1a237e" stroke-width="1.5" fill="none" opacity="0.6">
    <path d="M250 100 Q255 95 260 100 Q265 95 270 100"/>
    <path d="M300 80 Q305 75 310 80 Q315 75 320 80"/>
    <path d="M500 90 Q505 85 510 90 Q515 85 520 90"/>
    <path d="M550 110 Q555 105 560 110 Q565 105 570 110"/>
  </g>
  <!-- Bottom label area -->
  <rect x="0" y="370" width="800" height="30" fill="#0D3B0D" opacity="0.5"/>
  <text x="400" y="388" text-anchor="middle" font-family="serif" font-size="12" fill="#FFB300" opacity="0.7">Mata dos Cocais — Tuntum, Maranhão</text>
</svg>
