<svg xmlns="http://www.w3.org/2000/svg" viewBox="0 0 800 400">
  <!-- Sky gradient -->
  <defs>
    <linearGradient id="sky" x1="0" y1="0" x2="0" y2="1">
      <stop offset="0%" stop-color="#87CEEB"/>
      <stop offset="60%" stop-color="#E0F4FF"/>
      <stop offset="100%" stop-color="#F8E8C8"/>
    </linearGradient>
    <linearGradient id="ground" x1="0" y1="0" x2="0" y2="1">
      <stop offset="0%" stop-color="#4CAF50"/>
      <stop offset="100%" stop-color="#2E7D32"/>
    </linearGradient>
  </defs>
  <rect width="800" height="400" fill="url(#sky)"/>
  <!-- Sun -->
  <circle cx="650" cy="80" r="45" fill="#FFD54F" opacity="0.9"/>
  <circle cx="650" cy="80" r="55" fill="#FFD54F" opacity="0.2"/>
  <!-- Clouds -->
  <g opacity="0.8" fill="white">
    <ellipse cx="150" cy="60" rx="60" ry="20"/>
    <ellipse cx="120" cy="55" rx="40" ry="18"/>
    <ellipse cx="180" cy="55" rx="35" ry="16"/>
    <ellipse cx="450" cy="90" rx="50" ry="16"/>
    <ellipse cx="420" cy="85" rx="35" ry="14"/>
    <ellipse cx="480" cy="86" rx="30" ry="13"/>
  </g>
  <!-- Far hills -->
  <ellipse cx="200" cy="260" rx="250" ry="60" fill="#66BB6A" opacity="0.5"/>
  <ellipse cx="550" cy="270" rx="300" ry="50" fill="#81C784" opacity="0.4"/>
  <!-- Ground -->
  <rect x="0" y="250" width="800" height="150" fill="url(#ground)"/>
  <!-- Church -->
  <g transform="translate(340, 150)">
    <rect x="10" y="40" width="60" height="60" fill="#F5E6C8" stroke="#D4A574" stroke-width="1"/>
    <polygon points="40,10 10,40 70,40" fill="#B71C1C"/>
    <line x1="40" y1="10" x2="40" y2="0" stroke="#8D6E63" stroke-width="2"/>
    <circle cx="40" cy="-2" r="3" fill="#C5972C"/>
    <rect x="30" y="70" width="20" height="30" fill="#8D6E63" rx="2"/>
    <rect x="18" y="52" width="12" height="15" fill="#81D4FA" rx="1" opacity="0.6"/>
    <rect x="50" y="52" width="12" height="15" fill="#81D4FA" rx="1" opacity="0.6"/>
  </g>
  <!-- Houses -->
  <g transform="translate(180, 195)">
    <rect x="0" y="15" width="40" height="35" fill="#FFCC80"/>
    <polygon points="20,0 0,15 40,15" fill="#E65100"/>
    <rect x="14" y="30" width="12" height="20" fill="#795548"/>
    <rect x="4" y="22" width="8" height="8" fill="#81D4FA" opacity="0.6"/>
  </g>
  <g transform="translate(240, 200)">
    <rect x="0" y="10" width="35" height="30" fill="#FFF9C4"/>
    <polygon points="17,0 0,10 35,10" fill="#F57F17"/>
    <rect x="12" y="25" width="10" height="15" fill="#795548"/>
  </g>
  <g transform="translate(460, 190)">
    <rect x="0" y="15" width="45" height="40" fill="#C8E6C9"/>
    <polygon points="22,0 0,15 45,15" fill="#2E7D32"/>
    <rect x="16" y="30" width="13" height="25" fill="#795548"/>
    <rect x="4" y="20" width="9" height="9" fill="#81D4FA" opacity="0.6"/>
    <rect x="32" y="20" width="9" height="9" fill="#81D4FA" opacity="0.6"/>
  </g>
  <!-- Babaçu palms -->
  <g transform="translate(80, 120)">
    <line x1="20" y1="130" x2="22" y2="30" stroke="#795548" stroke-width="5" stroke-linecap="round"/>
    <path d="M22 35 Q-5 10 -20 -5" stroke="#2E7D32" stroke-width="3" fill="none"/>
    <path d="M22 35 Q5 0 0 -15" stroke="#388E3C" stroke-width="3" fill="none"/>
    <path d="M22 35 Q35 0 40 -15" stroke="#388E3C" stroke-width="3" fill="none"/>
    <path d="M22 35 Q50 10 65 -5" stroke="#2E7D32" stroke-width="3" fill="none"/>
    <path d="M22 35 Q10 15 -10 5" stroke="#43A047" stroke-width="2.5" fill="none"/>
    <path d="M22 35 Q35 15 55 5" stroke="#43A047" stroke-width="2.5" fill="none"/>
    <circle cx="17" cy="38" r="4" fill="#8D6E63"/>
    <circle cx="22" cy="40" r="4" fill="#795548"/>
    <circle cx="27" cy="38" r="4" fill="#8D6E63"/>
  </g>
  <g transform="translate(620, 130)">
    <line x1="20" y1="120" x2="18" y2="25" stroke="#795548" stroke-width="5" stroke-linecap="round"/>
    <path d="M18 30 Q-5 5 -15 -10" stroke="#2E7D32" stroke-width="3" fill="none"/>
    <path d="M18 30 Q5 -5 0 -20" stroke="#388E3C" stroke-width="3" fill="none"/>
    <path d="M18 30 Q30 -5 35 -20" stroke="#388E3C" stroke-width="3" fill="none"/>
    <path d="M18 30 Q45 5 55 -10" stroke="#2E7D32" stroke-width="3" fill="none"/>
    <circle cx="13" cy="33" r="4" fill="#8D6E63"/>
    <circle cx="18" cy="35" r="4" fill="#795548"/>
    <circle cx="23" cy="33" r="4" fill="#8D6E63"/>
  </g>
  <g transform="translate(720, 150)">
    <line x1="15" y1="100" x2="14" y2="20" stroke="#795548" stroke-width="4" stroke-linecap="round"/>
    <path d="M14 25 Q0 10 -10 0" stroke="#2E7D32" stroke-width="2.5" fill="none"/>
    <path d="M14 25 Q5 -2 0 -12" stroke="#388E3C" stroke-width="2.5" fill="none"/>
    <path d="M14 25 Q25 -2 30 -12" stroke="#388E3C" stroke-width="2.5" fill="none"/>
    <path d="M14 25 Q30 10 40 0" stroke="#2E7D32" stroke-width="2.5" fill="none"/>
  </g>
  <!-- Vegetation tufts -->
  <g fill="#43A047">
    <ellipse cx="50" cy="260" rx="25" ry="12"/>
    <ellipse cx="300" cy="255" rx="20" ry="10"/>
    <ellipse cx="560" cy="258" rx="18" ry="9"/>
    <ellipse cx="750" cy="262" rx="22" ry="10"/>
  </g>
  <!-- Road/path -->
  <path d="M0 330 Q200 310 400 320 Q600 330 800 310" stroke="#A1887F" stroke-width="8" fill="none" opacity="0.4"/>
  <!-- Grass details -->
  <g stroke="#1B5E20" stroke-width="1.5" opacity="0.4">
    <line x1="120" y1="290" x2="125" y2="275"/>
    <line x1="250" y1="300" x2="255" y2="285"/>
    <line x1="500" y1="295" x2="505" y2="280"/>
    <line x1="680" y1="290" x2="685" y2="275"/>
  </g>
</svg>
