<svg width="800" height="400" xmlns="http://www.w3.org/2000/svg">
  <defs>
    <linearGradient id="grad1" x1="0%" y1="0%" x2="100%" y2="100%">
      <stop offset="0%" style="stop-color:#064E3B;stop-opacity:1" />
      <stop offset="100%" style="stop-color:#065F46;stop-opacity:1" />
    </linearGradient>
    <pattern id="palm-pattern" x="0" y="0" width="100" height="100" patternUnits="userSpaceOnUse">
      <path d="M50 100 C 20 100 0 80 0 50 C 0 20 20 0 50 0 C 80 0 100 20 100 50 C 100 80 80 100 50 100 Z" fill="none" stroke="#10B981" stroke-width="0.5" stroke-opacity="0.1"/>
      <path d="M0 100 L 100 0" stroke="#059669" stroke-width="1" stroke-opacity="0.1"/>
    </pattern>
  </defs>
  
  <rect width="800" height="400" fill="url(#grad1)" />
  <rect width="800" height="400" fill="url(#palm-pattern)" />
  
  <!-- Stylized Abstract Waves/Leaves -->
  <path d="M0 350 Q 200 250 400 300 T 800 250" stroke="#10B981" stroke-width="2" fill="none" opacity="0.3" />
  <path d="M0 380 Q 200 280 400 330 T 800 280" stroke="#059669" stroke-width="2" fill="none" opacity="0.3" />
  <path d="M0 410 Q 200 310 400 360 T 800 310" stroke="#047857" stroke-width="2" fill="none" opacity="0.3" />

  <!-- Subtle Gold Circles -->
  <circle cx="700" cy="100" r="50" fill="#D97706" opacity="0.05" />
  <circle cx="100" cy="300" r="30" fill="#D97706" opacity="0.05" />
</svg>
